<?xml version="1.0" encoding="utf-8"?>
<!-- Generator: Adobe Illustrator 16.0.4, SVG Export Plug-In . SVG Version: 6.00 Build 0)  -->
<!DOCTYPE svg PUBLIC "-//W3C//DTD SVG 1.1//EN" "http://www.w3.org/Graphics/SVG/1.1/DTD/svg11.dtd">
<svg version="1.1" id="Layer_1" xmlns="http://www.w3.org/2000/svg" xmlns:xlink="http://www.w3.org/1999/xlink" x="0px" y="0px"
	 width="514.748px" height="143.938px" viewBox="0 0 514.748 143.938" enable-background="new 0 0 514.748 143.938"
	 xml:space="preserve">
<g>
	<polygon points="11.971,33.545 0,33.545 0,27.398 30.629,27.398 30.629,33.545 18.657,33.545 18.657,65.146 11.971,65.146 	"/>
	<path d="M50.468,27.129h6.148l16.609,38.016h-7.012l-3.827-9.113h-17.85l-3.883,9.113h-6.795L50.468,27.129z M59.959,50.154
		l-6.524-15.099l-6.472,15.099H59.959z"/>
	<rect x="83.846" y="27.398" width="6.633" height="37.747"/>
	<polygon points="105.685,27.398 112.318,27.398 112.318,59.105 132.162,59.105 132.162,65.145 105.685,65.145 	"/>
	<path d="M135.774,46.379v-0.108c0-10.623,8.197-19.521,19.79-19.521c11.594,0,19.683,8.79,19.683,19.413v0.107
		c0,10.624-8.196,19.521-19.791,19.521C143.863,65.792,135.774,57.002,135.774,46.379 M168.292,46.379v-0.108
		c0-7.334-5.339-13.427-12.835-13.427c-7.495,0-12.726,5.985-12.726,13.319v0.107c0,7.334,5.339,13.427,12.834,13.427
		C163.061,59.698,168.292,53.713,168.292,46.379"/>
	<path d="M185.978,27.398h16.824c4.744,0,8.467,1.402,10.893,3.774c1.995,2.05,3.128,4.854,3.128,8.143v0.108
		c0,6.202-3.721,9.922-9.005,11.432l10.19,14.29h-7.818l-9.275-13.157h-0.107h-8.197v13.157h-6.632V27.398z M202.317,46.11
		c4.745,0,7.765-2.48,7.765-6.31v-0.107c0-4.044-2.912-6.255-7.818-6.255h-9.653V46.11H202.317z"/>
	<path d="M304.931,59.645l3.99-4.746c3.611,3.128,7.227,4.907,11.916,4.907c4.1,0,6.688-1.886,6.688-4.745v-0.106
		c0-2.697-1.51-4.153-8.521-5.771c-8.033-1.94-12.562-4.312-12.562-11.27v-0.108c0-6.471,5.391-10.947,12.887-10.947
		c5.5,0,9.869,1.672,13.697,4.746l-3.559,5.016c-3.396-2.535-6.795-3.884-10.246-3.884c-3.883,0-6.146,1.996-6.146,4.477v0.107
		c0,2.912,1.727,4.206,8.951,5.933c7.98,1.94,12.133,4.799,12.133,11.054v0.108c0,7.063-5.555,11.27-13.48,11.27
		C314.906,65.684,309.461,63.689,304.931,59.645"/>
	<polygon points="353.138,33.545 341.168,33.545 341.168,27.398 371.797,27.398 371.797,33.545 359.824,33.545 359.824,65.146 
		353.138,65.146 	"/>
	<path d="M377.674,46.379v-0.108c0-10.623,8.197-19.521,19.791-19.521s19.684,8.79,19.684,19.413v0.107
		c0,10.624-8.197,19.521-19.791,19.521S377.674,57.002,377.674,46.379 M410.191,46.379v-0.108c0-7.334-5.34-13.427-12.834-13.427
		c-7.496,0-12.729,5.985-12.729,13.319v0.107c0,7.334,5.34,13.427,12.834,13.427C404.961,59.698,410.191,53.713,410.191,46.379"/>
	<path d="M427.879,27.398h16.822c4.744,0,8.467,1.402,10.895,3.774c1.994,2.05,3.127,4.854,3.127,8.143v0.108
		c0,6.202-3.721,9.922-9.006,11.432l10.191,14.29h-7.818l-9.275-13.157h-0.105h-8.197v13.157h-6.633V27.398L427.879,27.398z
		 M444.217,46.11c4.746,0,7.766-2.48,7.766-6.31v-0.107c0-4.044-2.912-6.255-7.818-6.255h-9.652V46.11H444.217z"/>
	<polygon points="471.179,27.398 499.164,27.398 499.164,33.33 477.81,33.33 477.81,43.144 496.738,43.144 496.738,49.076 
		477.81,49.076 477.81,59.213 499.435,59.213 499.435,65.145 471.179,65.145 	"/>
	<path fill="#B30000" d="M306.922,3.009c-2.369-3.18-7.811-4.39-12.811-0.88c-3.52,2.46-6.549,5.5-9.33,9.42
		c-3.84-1.05-8.09-2.74-12.67-5.05c-19.429-9.811-32.338-3.23-35.828-0.98c-5.79,3.73-8.97,9.45-8.71,15.71
		c0.36,8.98,7.42,13.98,13.82,14.82c7.459,0.99,13.788-3.19,16.118-10.63c0.311-1-0.25-2.07-1.25-2.38
		c-0.99-0.311-2.061,0.239-2.381,1.25c-2.119,6.79-7.588,8.58-11.998,8c-4.869-0.641-10.25-4.431-10.52-11.221
		c-0.2-4.87,2.34-9.38,6.97-12.359c9.641-6.2,22.878-3.46,32.069,1.17c4.57,2.31,8.609,3.93,12.189,5
		c-0.949,1.569-1.881,3.26-2.789,5.08c-0.051,0.1-0.102,0.2-0.15,0.3c-5.201-0.78-10.4,1.24-13.92,4.62
		c-4.631,4.45-6.98,11.99-1.76,18.819c0.639,0.841,1.318,1.61,2.02,2.33c-2.391,4.42-4.6,8.521-6.291,11.73
		c-4.74,8.979-10.769,16.01-17.278,20.37c-1.689-1.72-2.96-3.649-3.63-5.63c-1.83-5.38-1.189-10.431,1.82-14.221
		c2.65-3.34,6.769-5.159,10.719-4.77c1.039,0.1,1.968-0.66,2.08-1.7c0.1-1.05-0.66-1.979-1.701-2.08
		c-5.237-0.52-10.628,1.851-14.079,6.19c-3.83,4.83-4.699,11.149-2.439,17.8c0.76,2.261,2.109,4.44,3.899,6.4
		c-3.079,1.609-6.229,2.619-9.369,2.96c-7.54,0.8-14.5-2.301-20.131-8.979c-0.67-0.801-1.869-0.899-2.67-0.229
		c-0.8,0.68-0.909,1.88-0.229,2.68c5.79,6.87,12.88,10.45,20.649,10.45c0.921,0,1.851-0.051,2.79-0.149
		c4.011-0.431,8.021-1.811,11.891-4.021c1.55,1.21,3.279,2.279,5.15,3.159c3.899,1.82,8.108,2.729,12.418,2.729
		c3.891,0,7.859-0.739,11.74-2.239c7.869-3.04,13.369-9.271,14.699-16.66c1.16-6.489-1.199-12.89-6.471-17.55
		c-1.479-1.3-3.07-2.49-4.6-3.649c-1.48-1.101-2.92-2.181-4.262-3.341c3.801-7.06,7.91-14.71,10.941-20.59h0.01
		c1.1,0.46,2.18,1.11,3.229,1.98c2.881,2.39,3.109,5.66,2.359,7.91c-0.729,2.189-2.77,4.6-6.309,4.79
		c-1.051,0.06-1.852,0.949-1.801,2c0.061,1.05,0.971,1.85,2,1.79c4.561-0.24,8.279-3.07,9.709-7.381
		c1.461-4.399,0.102-9.01-3.529-12.029c-1.26-1.05-2.58-1.851-3.939-2.431c1-1.989,2.021-3.79,3.07-5.439
		c9.219,1.95,14.799-0.07,18.1-2.68C308.873,9.769,308.861,5.609,306.922,3.009 M272.683,51.659c1.539,1.159,3,2.25,4.369,3.46
		c4.32,3.81,6.18,8.8,5.24,14.029c-1.092,6.08-5.701,11.229-12.33,13.79c-7.189,2.771-14.711,2.63-21.179-0.391
		c-1.189-0.561-2.31-1.199-3.339-1.92c6.679-4.75,12.809-12,17.608-21.101c1.58-2.989,3.609-6.77,5.811-10.85
		C270.123,49.729,271.412,50.698,272.683,51.659 M267.883,42.499c-0.311-0.351-0.609-0.721-0.9-1.101
		c-4.049-5.31-1.789-10.739,1.381-13.79c2.391-2.279,5.83-3.88,9.439-3.75C274.982,29.289,271.332,36.089,267.883,42.499
		 M302.183,10.219c-3.09,2.45-7.641,3.17-13.352,2.229c2.271-2.939,4.699-5.289,7.461-7.22c3.42-2.39,6.5-1.41,7.59,0.05
		C304.941,6.698,304.302,8.539,302.183,10.219"/>
</g>
<path d="M503.177,28.841c0-0.971,0.257-1.883,0.77-2.733c0.512-0.849,1.218-1.52,2.115-2.011c0.898-0.491,1.865-0.736,2.901-0.736
	c1.024,0,1.986,0.243,2.885,0.729c0.897,0.485,1.605,1.154,2.124,2.004c0.518,0.85,0.776,1.766,0.776,2.747
	c0,0.957-0.249,1.855-0.745,2.696c-0.498,0.841-1.196,1.513-2.094,2.019c-0.897,0.505-1.88,0.757-2.946,0.757
	c-1.062,0-2.042-0.251-2.939-0.754c-0.896-0.503-1.596-1.174-2.096-2.015C503.427,30.704,503.177,29.803,503.177,28.841
	 M504.122,28.841c0,0.826,0.218,1.592,0.65,2.299s1.023,1.264,1.772,1.672s1.555,0.613,2.417,0.613c0.871,0,1.682-0.208,2.43-0.623
	c0.749-0.416,1.34-0.974,1.768-1.677c0.43-0.701,0.644-1.464,0.644-2.284c0-0.816-0.218-1.58-0.65-2.292
	c-0.432-0.712-1.024-1.271-1.776-1.679c-0.752-0.408-1.557-0.613-2.412-0.613c-0.862,0-1.664,0.202-2.404,0.604
	c-0.742,0.403-1.334,0.96-1.773,1.669C504.344,27.241,504.122,28.01,504.122,28.841 M511.308,27.544c0,0.83-0.392,1.396-1.176,1.697
	l1.822,2.894h-1.624l-1.478-2.522h-0.691v2.522h-1.454v-6.581h2.016c0.893,0,1.546,0.166,1.962,0.496
	C511.102,26.38,511.308,26.878,511.308,27.544 M508.162,28.557h0.53c0.38,0,0.668-0.085,0.862-0.255
	c0.193-0.17,0.292-0.414,0.292-0.729c0-0.349-0.094-0.594-0.281-0.731c-0.188-0.139-0.483-0.208-0.889-0.208h-0.516L508.162,28.557
	L508.162,28.557z"/>
<rect x="83.534" y="111.941" fill="none" width="351" height="46"/>
<g enable-background="new    ">
	<path fill="#444444" d="M111.01,115.064c1.094,0.839,1.909,1.968,2.446,3.387c0.537,1.42,0.806,3.002,0.806,4.745
		c0,2.439-0.439,4.643-1.318,6.61s-2.085,3.514-3.618,4.638s-3.242,1.687-5.127,1.687c-1.572,0-2.913-0.412-4.021-1.236
		s-1.943-1.946-2.505-3.366c-0.562-1.419-0.842-3.015-0.842-4.787c0-2.449,0.444-4.659,1.333-6.632
		c0.889-1.972,2.107-3.516,3.655-4.631c1.548-1.114,3.269-1.672,5.164-1.672C108.573,113.806,109.916,114.225,111.01,115.064z
		 M111.361,119.259c-0.4-1.254-1.001-2.229-1.802-2.927c-0.801-0.698-1.782-1.047-2.944-1.047c-1.406,0-2.683,0.475-3.831,1.424
		s-2.053,2.27-2.717,3.959c-0.664,1.69-0.996,3.604-0.996,5.739c0,1.671,0.215,3.131,0.645,4.379s1.052,2.217,1.868,2.905
		s1.79,1.032,2.922,1.032c1.396,0,2.661-0.477,3.794-1.432c1.133-0.953,2.026-2.275,2.681-3.966
		c0.654-1.689,0.981-3.589,0.981-5.696C111.962,121.969,111.761,120.512,111.361,119.259z"/>
	<path fill="#444444" d="M118.899,120.908l0.205-1.137l3.003-0.663l0.557,0.293l-0.41,3.979c0.879-1.216,1.909-2.231,3.091-3.048
		c1.182-0.815,2.334-1.224,3.457-1.224c1.094,0,1.924,0.332,2.49,0.994c0.566,0.663,0.85,1.77,0.85,3.319
		c0,0.527-0.051,1.132-0.154,1.813c-0.103,0.683-0.247,1.512-0.432,2.486l-0.19,1.009l-0.161,0.877
		c-0.166,0.927-0.303,1.724-0.41,2.392s-0.176,1.274-0.205,1.82l-0.015,0.278c0,0.243,0.029,0.434,0.088,0.57
		s0.146,0.204,0.264,0.204c0.391,0,0.869-0.259,1.436-0.778l0.366,0.635c-0.088,0.129-0.281,0.306-0.579,0.531
		s-0.659,0.427-1.084,0.604c-0.425,0.177-0.862,0.266-1.311,0.266c-0.996,0-1.494-0.507-1.494-1.521
		c0-0.459,0.054-1.023,0.161-1.692s0.259-1.497,0.454-2.481l0.22-1.162l0.176-0.918c0.205-1.08,0.364-1.996,0.476-2.747
		c0.112-0.75,0.168-1.45,0.168-2.102c0-0.659-0.066-1.173-0.198-1.542c-0.132-0.367-0.344-0.628-0.637-0.781
		c-0.293-0.152-0.703-0.229-1.23-0.229c-0.586,0-1.235,0.192-1.948,0.577c-0.713,0.386-1.414,0.904-2.102,1.558
		s-1.292,1.364-1.809,2.135l-1.45,10.892h-2.168l1.963-14.466L118.899,120.908z"/>
	<path fill="#444444" d="M147.955,119.572c0.615,0.309,1.077,0.731,1.384,1.269c0.308,0.536,0.461,1.146,0.461,1.83
		c0,1.368-0.613,2.524-1.838,3.47c-1.226,0.944-2.654,1.654-4.285,2.13c-1.631,0.475-3.037,0.712-4.219,0.712
		c-0.02,0.294-0.029,0.514-0.029,0.661c0,0.803,0.125,1.571,0.374,2.306s0.652,1.342,1.208,1.821s1.274,0.72,2.153,0.72
		c0.859,0,1.753-0.192,2.681-0.577c0.928-0.384,1.792-0.971,2.593-1.759l0.542,0.98c-0.312,0.427-0.774,0.873-1.384,1.338
		c-0.61,0.466-1.326,0.858-2.146,1.179c-0.82,0.319-1.67,0.479-2.549,0.479c-1.309,0-2.395-0.295-3.259-0.885
		s-1.499-1.364-1.904-2.323c-0.405-0.96-0.608-2-0.608-3.123c0-1.832,0.376-3.57,1.128-5.216c0.752-1.645,1.782-2.969,3.091-3.971
		c1.309-1.003,2.754-1.504,4.336-1.504C146.583,119.109,147.34,119.263,147.955,119.572z M146.908,121.092
		c-0.415-0.404-0.994-0.606-1.736-0.606c-1.035,0-1.963,0.373-2.783,1.119s-1.477,1.675-1.97,2.784
		c-0.493,1.11-0.793,2.196-0.901,3.26c1.172,0,2.38-0.199,3.625-0.6c1.245-0.399,2.288-0.961,3.127-1.685s1.26-1.556,1.26-2.496
		C147.531,122.088,147.323,121.496,146.908,121.092z"/>
	<path fill="#444444" d="M162.972,134.2c0.742,0.222,1.528,0.333,2.358,0.333c1.006,0,1.843-0.185,2.512-0.553
		c0.669-0.369,1.003-1.013,1.003-1.932c0-0.526-0.149-1.013-0.447-1.458s-0.627-0.813-0.989-1.105s-0.869-0.668-1.523-1.128
		c-0.82-0.555-1.56-1.23-2.219-2.024c-0.659-0.795-0.989-1.705-0.989-2.729c0-0.899,0.254-1.689,0.762-2.369
		s1.189-1.204,2.043-1.573c0.854-0.368,1.78-0.553,2.776-0.553c0.723,0,1.46,0.065,2.212,0.198c0.752,0.131,1.265,0.266,1.538,0.402
		l-0.439,2.081c-0.068-0.118-0.266-0.271-0.593-0.459c-0.327-0.188-0.737-0.351-1.23-0.49s-1.023-0.209-1.589-0.209
		c-0.977,0-1.763,0.194-2.358,0.582s-0.928,0.965-0.996,1.73c-0.039,0.536,0.063,1.032,0.308,1.486
		c0.244,0.455,0.552,0.855,0.923,1.2c0.371,0.344,0.83,0.713,1.377,1.105c0.762,0.564,1.36,1.039,1.794,1.422
		s0.833,0.876,1.194,1.479s0.542,1.278,0.542,2.025c0,0.929-0.259,1.73-0.776,2.405c-0.518,0.676-1.213,1.188-2.087,1.537
		s-1.833,0.524-2.878,0.524c-0.879,0-1.75-0.095-2.615-0.285s-1.428-0.403-1.692-0.638l0.396-1.738
		C161.669,133.735,162.23,133.978,162.972,134.2z"/>
	<path fill="#444444" d="M176.458,120.427l0.19-0.952l3.662-0.615l0.586,0.308l-2.065,14.355c-0.02,0.156-0.029,0.264-0.029,0.322
		c0,0.244,0.044,0.43,0.132,0.557s0.195,0.19,0.322,0.19c0.225,0,0.457-0.078,0.696-0.234s0.535-0.425,0.886-0.806l0.381,0.645
		c-0.137,0.205-0.352,0.457-0.645,0.755s-0.657,0.568-1.091,0.812s-0.896,0.366-1.384,0.366c-0.479,0-0.862-0.119-1.15-0.358
		s-0.432-0.623-0.432-1.15c0-0.352,0.083-1.121,0.249-2.307c0.166-1.188,0.41-2.845,0.732-4.974
		c0.371-2.393,0.679-4.502,0.923-6.328L176.458,120.427z M179.219,113.272c0.161-0.279,0.369-0.501,0.623-0.667
		s0.508-0.249,0.762-0.249c0.41,0,0.737,0.125,0.981,0.373c0.244,0.25,0.366,0.569,0.366,0.96c0,0.342-0.078,0.659-0.234,0.952
		s-0.364,0.525-0.623,0.695c-0.259,0.172-0.54,0.257-0.842,0.257c-0.352,0-0.652-0.134-0.901-0.403
		c-0.249-0.268-0.374-0.603-0.374-1.003C178.977,113.855,179.058,113.549,179.219,113.272z"/>
	<path fill="#444444" d="M188.068,119.203c0.195-0.054,0.464-0.08,0.806-0.08c0.781,0,2.285,0,4.512,0
		c1.924,0.225,3.213,0.337,3.867,0.337c0.264,0,0.505-0.029,0.725-0.088s0.442-0.171,0.667-0.337l-0.015,0.06l0.645,0.627
		l-7.031,9.438l-4.717,5.286c0.264,0,0.547,0,0.85,0s0.61,0,0.923,0c2.637,0,4.277,0,4.922,0c0.752,0,1.328-0.241,1.729-0.723
		s0.679-1.199,0.835-2.153h0.952c-0.068,0.975-0.212,1.874-0.432,2.7c-0.22,0.825-0.52,1.355-0.901,1.59
		c-0.303,0.181-0.791,0.271-1.465,0.271c-0.498,0-1.174,0-2.029,0s-1.697-0.003-2.527-0.008c-0.732-0.005-1.445-0.007-2.139-0.007
		s-1.221,0-1.582,0c-0.205,0-0.427,0.001-0.667,0.004c-0.239,0.002-0.452,0.005-0.637,0.01l-0.132,0.117l-0.762-0.424l9.814-12.182
		l2.168-2.496h-1.465c-2.324,0-3.95,0-4.878,0c-0.596,0-0.913,0.015-0.952,0.044c-0.479,0.029-0.876,0.338-1.194,0.926
		s-0.5,1.266-0.549,2.033h-0.967c-0.01-0.473,0.024-1.047,0.103-1.723s0.203-1.301,0.374-1.875c0.171-0.575,0.383-0.949,0.637-1.123
		C187.701,119.331,187.872,119.256,188.068,119.203z"/>
	<path fill="#444444" d="M212.569,119.572c0.615,0.309,1.077,0.731,1.384,1.269c0.308,0.536,0.461,1.146,0.461,1.83
		c0,1.368-0.613,2.524-1.838,3.47c-1.226,0.944-2.654,1.654-4.285,2.13c-1.631,0.475-3.037,0.712-4.219,0.712
		c-0.02,0.294-0.029,0.514-0.029,0.661c0,0.803,0.125,1.571,0.374,2.306s0.652,1.342,1.208,1.821s1.274,0.72,2.153,0.72
		c0.859,0,1.753-0.192,2.681-0.577c0.928-0.384,1.792-0.971,2.593-1.759l0.542,0.98c-0.312,0.427-0.774,0.873-1.384,1.338
		c-0.61,0.466-1.326,0.858-2.146,1.179c-0.82,0.319-1.67,0.479-2.549,0.479c-1.309,0-2.395-0.295-3.259-0.885
		s-1.499-1.364-1.904-2.323c-0.405-0.96-0.608-2-0.608-3.123c0-1.832,0.376-3.57,1.128-5.216c0.752-1.645,1.782-2.969,3.091-3.971
		c1.309-1.003,2.754-1.504,4.336-1.504C211.197,119.109,211.953,119.263,212.569,119.572z M211.521,121.092
		c-0.415-0.404-0.994-0.606-1.736-0.606c-1.035,0-1.963,0.373-2.783,1.119s-1.477,1.675-1.97,2.784
		c-0.493,1.11-0.793,2.196-0.901,3.26c1.172,0,2.38-0.199,3.625-0.6c1.245-0.399,2.288-0.961,3.127-1.685s1.26-1.556,1.26-2.496
		C212.144,122.088,211.936,121.496,211.521,121.092z"/>
	<path fill="#444444" d="M237.598,119.907c0.864,0.532,1.521,1.305,1.97,2.316s0.674,2.223,0.674,3.633
		c0,1.717-0.354,3.367-1.062,4.95c-0.708,1.582-1.694,2.865-2.959,3.849s-2.683,1.475-4.255,1.475c-1.24,0-2.295-0.264-3.164-0.791
		s-1.528-1.295-1.978-2.303c-0.449-1.007-0.674-2.22-0.674-3.64c0-1.736,0.356-3.396,1.069-4.979
		c0.713-1.583,1.702-2.863,2.966-3.842s2.683-1.468,4.255-1.468C235.681,119.109,236.734,119.375,237.598,119.907z M236.939,121.963
		c-0.649-0.946-1.614-1.419-2.893-1.419c-1.162,0-2.168,0.444-3.018,1.333c-0.85,0.89-1.492,2.01-1.926,3.362
		s-0.652,2.712-0.652,4.079c0,1.721,0.334,3.047,1.003,3.979s1.638,1.397,2.908,1.397c1.143,0,2.134-0.444,2.974-1.333
		c0.84-0.89,1.479-2.01,1.919-3.362s0.659-2.702,0.659-4.05C237.913,124.239,237.588,122.909,236.939,121.963z"/>
	<path fill="#444444" d="M245.143,120.908l0.205-1.137l3.003-0.663l0.557,0.293l-0.41,3.979c0.879-1.216,1.909-2.231,3.091-3.048
		c1.182-0.815,2.334-1.224,3.457-1.224c1.094,0,1.924,0.332,2.49,0.994c0.567,0.663,0.85,1.77,0.85,3.319
		c0,0.527-0.052,1.132-0.154,1.813c-0.103,0.683-0.246,1.512-0.432,2.486l-0.19,1.009l-0.161,0.877
		c-0.166,0.927-0.303,1.724-0.41,2.392s-0.176,1.274-0.205,1.82l-0.015,0.278c0,0.243,0.029,0.434,0.088,0.57
		s0.146,0.204,0.264,0.204c0.391,0,0.869-0.259,1.435-0.778l0.367,0.635c-0.088,0.129-0.281,0.306-0.579,0.531
		s-0.659,0.427-1.084,0.604c-0.425,0.177-0.862,0.266-1.311,0.266c-0.996,0-1.494-0.507-1.494-1.521
		c0-0.459,0.054-1.023,0.161-1.692s0.259-1.497,0.454-2.481l0.22-1.162l0.176-0.918c0.205-1.08,0.364-1.996,0.476-2.747
		c0.112-0.75,0.168-1.45,0.168-2.102c0-0.659-0.066-1.173-0.198-1.542c-0.132-0.367-0.344-0.628-0.637-0.781
		c-0.293-0.152-0.703-0.229-1.23-0.229c-0.586,0-1.235,0.192-1.948,0.577c-0.713,0.386-1.414,0.904-2.102,1.558
		s-1.292,1.364-1.809,2.135l-1.45,10.892h-2.168l1.963-14.466L245.143,120.908z"/>
	<path fill="#444444" d="M267.124,113.645l-1.729-0.483l0.234-0.981l3.252-0.513l0.572,0.337l-3.018,21.519
		c-0.02,0.156-0.029,0.269-0.029,0.337c0,0.234,0.039,0.415,0.117,0.542s0.18,0.19,0.307,0.19c0.225,0,0.465-0.078,0.719-0.234
		s0.557-0.42,0.908-0.791l0.365,0.63c-0.098,0.186-0.3,0.433-0.607,0.739c-0.308,0.309-0.682,0.584-1.121,0.828
		s-0.902,0.366-1.391,0.366c-0.498,0-0.867-0.142-1.106-0.425s-0.354-0.737-0.345-1.362c0-0.273,0.029-0.605,0.088-0.996
		L267.124,113.645z"/>
	<path fill="#444444" d="M274.464,121.026c-0.111-0.147-0.256-0.222-0.432-0.222c-0.186,0-0.376,0.072-0.571,0.215
		c-0.195,0.144-0.449,0.386-0.762,0.727l-0.352-0.732c0.107-0.187,0.3-0.429,0.579-0.726c0.277-0.297,0.617-0.565,1.018-0.805
		s0.811-0.359,1.23-0.359s0.747,0.079,0.981,0.236s0.407,0.378,0.521,0.663c0.111,0.285,0.202,0.659,0.271,1.121l1.523,11.267
		l0.41,4.203c0.186-0.354,0.61-1.176,1.274-2.465c0.752-1.485,1.167-2.287,1.245-2.405l0.835-1.697
		c0.576-1.161,1.027-2.118,1.355-2.871c0.326-0.753,0.603-1.552,0.827-2.398s0.337-1.702,0.337-2.568
		c0-0.295-0.088-0.64-0.264-1.033c-0.078-0.197-0.137-0.354-0.176-0.473s-0.059-0.241-0.059-0.369c0-0.413,0.098-0.718,0.293-0.915
		c0.195-0.196,0.459-0.295,0.791-0.295c0.498,0,0.884,0.229,1.157,0.686s0.41,1.113,0.41,1.969c0,0.924-0.169,1.914-0.505,2.971
		c-0.338,1.058-0.73,2.053-1.18,2.986s-1.016,2.04-1.699,3.317l-0.469,0.87c-1.094,2.261-2.092,4.148-2.996,5.662
		c-0.902,1.514-1.682,2.669-2.336,3.465c-0.469,0.669-1.133,1.269-1.992,1.8c-0.859,0.53-1.89,0.796-3.091,0.796
		c-0.391,0-0.827-0.044-1.312-0.132c-0.482-0.088-0.891-0.186-1.223-0.293l0.527-1.86c0.039,0.02,0.168,0.08,0.389,0.184
		c0.219,0.102,0.512,0.192,0.879,0.271c0.365,0.078,0.759,0.117,1.179,0.117c0.537,0,1.116-0.155,1.735-0.465
		c0.621-0.31,1.248-0.803,1.883-1.481c0.635-0.678,1.211-1.548,1.729-2.609h-1.025l-2.651-15.524
		C274.672,121.448,274.577,121.173,274.464,121.026z"/>
	<path fill="#444444" d="M312.559,123.869l-0.189,1.86h-12.203l0.205-1.86H312.559z"/>
	<path fill="#444444" d="M326.94,121.026c-0.113-0.147-0.257-0.222-0.433-0.222c-0.186,0-0.376,0.072-0.571,0.215
		c-0.195,0.144-0.449,0.386-0.762,0.727l-0.352-0.732c0.107-0.187,0.301-0.429,0.578-0.726c0.279-0.297,0.618-0.565,1.019-0.805
		s0.811-0.359,1.23-0.359s0.747,0.079,0.981,0.236s0.408,0.378,0.52,0.663c0.113,0.285,0.203,0.659,0.271,1.121l1.523,11.267
		l0.41,4.203c0.186-0.354,0.61-1.176,1.274-2.465c0.752-1.485,1.167-2.287,1.245-2.405l0.835-1.697
		c0.576-1.161,1.028-2.118,1.354-2.871c0.328-0.753,0.604-1.552,0.828-2.398s0.337-1.702,0.337-2.568
		c0-0.295-0.088-0.64-0.264-1.033c-0.078-0.197-0.137-0.354-0.176-0.473s-0.059-0.241-0.059-0.369c0-0.413,0.098-0.718,0.293-0.915
		c0.195-0.196,0.459-0.295,0.791-0.295c0.498,0,0.884,0.229,1.157,0.686s0.41,1.113,0.41,1.969c0,0.924-0.168,1.914-0.506,2.971
		c-0.336,1.058-0.729,2.053-1.179,2.986s-1.016,2.04-1.699,3.317l-0.469,0.87c-1.094,2.261-2.093,4.148-2.995,5.662
		c-0.904,1.514-1.683,2.669-2.337,3.465c-0.469,0.669-1.133,1.269-1.992,1.8c-0.859,0.53-1.89,0.796-3.091,0.796
		c-0.391,0-0.828-0.044-1.311-0.132c-0.484-0.088-0.892-0.186-1.224-0.293l0.527-1.86c0.039,0.02,0.169,0.08,0.388,0.184
		c0.221,0.102,0.514,0.192,0.879,0.271c0.367,0.078,0.76,0.117,1.18,0.117c0.537,0,1.115-0.155,1.736-0.465
		c0.619-0.31,1.247-0.803,1.882-1.481c0.635-0.678,1.211-1.548,1.729-2.609h-1.025l-2.651-15.524
		C327.147,121.448,327.052,121.173,326.94,121.026z"/>
	<path fill="#444444" d="M353.77,119.907c0.863,0.532,1.521,1.305,1.97,2.316s0.674,2.223,0.674,3.633
		c0,1.717-0.354,3.367-1.062,4.95c-0.709,1.582-1.695,2.865-2.959,3.849c-1.266,0.983-2.684,1.475-4.256,1.475
		c-1.24,0-2.295-0.264-3.164-0.791s-1.528-1.295-1.978-2.303c-0.449-1.007-0.674-2.22-0.674-3.64c0-1.736,0.356-3.396,1.069-4.979
		c0.713-1.583,1.701-2.863,2.967-3.842c1.264-0.979,2.683-1.468,4.255-1.468C351.853,119.109,352.905,119.375,353.77,119.907z
		 M353.11,121.963c-0.648-0.946-1.613-1.419-2.893-1.419c-1.162,0-2.168,0.444-3.018,1.333c-0.85,0.89-1.492,2.01-1.926,3.362
		c-0.436,1.353-0.652,2.712-0.652,4.079c0,1.721,0.334,3.047,1.004,3.979c0.668,0.932,1.638,1.397,2.907,1.397
		c1.143,0,2.134-0.444,2.974-1.333c0.84-0.89,1.479-2.01,1.919-3.362s0.659-2.702,0.659-4.05
		C354.085,124.239,353.76,122.909,353.11,121.963z"/>
	<path fill="#444444" d="M362.516,121.455l-1.422-0.678l0.191-1.104l3.002-0.668l0.572,0.431l-0.996,7.771
		c-0.059,0.433-0.107,0.765-0.146,0.995c-0.117,0.875-0.203,1.562-0.257,2.062c-0.054,0.499-0.081,1.019-0.081,1.557
		c0,0.722,0.094,1.281,0.279,1.681c0.186,0.398,0.443,0.673,0.775,0.821c0.332,0.149,0.752,0.224,1.26,0.224
		c0.547,0,1.129-0.155,1.744-0.465c0.615-0.311,1.198-0.715,1.75-1.214s1.018-1.025,1.398-1.578l1.348-10.22l0.25-1.948h2.152
		l-1.904,14.381c-0.02,0.193-0.029,0.324-0.029,0.392c0,0.213,0.035,0.374,0.104,0.485s0.16,0.167,0.277,0.167
		c0.215,0,0.457-0.076,0.726-0.228c0.269-0.152,0.579-0.403,0.931-0.753l0.365,0.648c-0.117,0.186-0.334,0.429-0.651,0.731
		c-0.317,0.302-0.703,0.574-1.157,0.817c-0.454,0.244-0.926,0.365-1.414,0.365c-0.439,0-0.781-0.127-1.025-0.381
		s-0.365-0.61-0.365-1.069c0-0.183,0.02-0.365,0.059-0.549l0.059-0.562l0.043-0.549c-0.723,0.893-1.56,1.635-2.512,2.225
		c-0.952,0.591-1.975,0.886-3.068,0.886c-1.162,0-2.049-0.298-2.659-0.894s-0.915-1.615-0.915-3.057
		c0-0.576,0.043-1.249,0.131-2.018c0.088-0.77,0.221-1.788,0.396-3.057L362.516,121.455z"/>
	<path fill="#444444" d="M379.737,120.837l0.205-1.055l3.031-0.63l0.527,0.278l-0.189,2.747l-0.176,1.32
		c0.254-0.602,0.661-1.244,1.223-1.927c0.562-0.684,1.235-1.265,2.021-1.744s1.609-0.719,2.469-0.719
		c0.488,0,0.805,0.063,0.951,0.19l-0.482,2.642c-0.264-0.276-0.732-0.415-1.406-0.415c-0.596,0-1.219,0.158-1.868,0.476
		s-1.26,0.79-1.831,1.42c-0.571,0.629-1.033,1.393-1.385,2.29l-1.303,10.404h-2.168l1.875-14.604L379.737,120.837z"/>
	<path fill="#444444" d="M393.28,134.2c0.742,0.222,1.528,0.333,2.358,0.333c1.006,0,1.843-0.185,2.513-0.553
		c0.668-0.369,1.003-1.013,1.003-1.932c0-0.526-0.149-1.013-0.446-1.458c-0.299-0.445-0.628-0.813-0.989-1.105
		s-0.869-0.668-1.523-1.128c-0.82-0.555-1.56-1.23-2.22-2.024c-0.658-0.795-0.988-1.705-0.988-2.729
		c0-0.899,0.254-1.689,0.762-2.369s1.189-1.204,2.043-1.573c0.855-0.368,1.78-0.553,2.776-0.553c0.723,0,1.46,0.065,2.212,0.198
		c0.752,0.131,1.265,0.266,1.538,0.402l-0.439,2.081c-0.068-0.118-0.267-0.271-0.593-0.459c-0.328-0.188-0.738-0.351-1.23-0.49
		c-0.494-0.14-1.023-0.209-1.59-0.209c-0.977,0-1.763,0.194-2.358,0.582s-0.928,0.965-0.996,1.73
		c-0.039,0.536,0.063,1.032,0.308,1.486c0.244,0.455,0.552,0.855,0.923,1.2c0.371,0.344,0.83,0.713,1.377,1.105
		c0.762,0.564,1.36,1.039,1.794,1.422c0.436,0.383,0.833,0.876,1.194,1.479s0.542,1.278,0.542,2.025c0,0.929-0.259,1.73-0.776,2.405
		c-0.518,0.676-1.214,1.188-2.087,1.537c-0.875,0.35-1.834,0.524-2.879,0.524c-0.879,0-1.75-0.095-2.615-0.285
		c-0.863-0.19-1.428-0.403-1.691-0.638l0.396-1.738C391.976,133.735,392.538,133.978,393.28,134.2z"/>
</g>
</svg>
